<svg version="1.1" viewBox="0.0 0.0 1440.0 818.0" fill="none" stroke="none" stroke-linecap="square" stroke-miterlimit="10" xmlns:xlink="http://www.w3.org/1999/xlink" xmlns="http://www.w3.org/2000/svg"><clipPath id="p.0"><path d="m0 0l1440.0 0l0 818.0l-1440.0 0l0 -818.0z" clip-rule="nonzero"/></clipPath><g clip-path="url(#p.0)"><path fill="#000000" fill-opacity="0.0" d="m0 0l1440.0 0l0 818.0l-1440.0 0z" fill-rule="evenodd"/><path fill="#000000" fill-opacity="0.0" d="m-140.0 905.9998c85.0 -144.66663 407.33334 -784.0 510.0 -868.0c102.66666 -84.0 45.666656 331.0 106.0 364.0c60.333313 33.0 205.48248 -212.24277 256.0 -165.99998c50.517517 46.242783 6.1049805 404.45673 47.10498 443.45673c41.0 39.0 145.41254 -228.21393 198.89502 -209.45673c53.482544 18.757233 62.0 344.6667 122.0 322.0c60.0 -22.666626 174.33337 -337.0 238.0 -458.0c63.666626 -120.999985 120.0 -223.33331 144.0 -268.0" fill-rule="evenodd"/><path stroke="#799f79" stroke-width="24.0" stroke-linejoin="round" stroke-linecap="butt" d="m-140.0 905.9998c85.0 -144.66663 407.33334 -784.0 510.0 -868.0c102.66666 -84.0 45.666656 331.0 106.0 364.0c60.333313 33.0 205.48248 -212.24277 256.0 -165.99998c50.517517 46.242783 6.1049805 404.45673 47.10498 443.45673c41.0 39.0 145.41254 -228.21393 198.89502 -209.45673c53.482544 18.757233 62.0 344.6667 122.0 322.0c60.0 -22.666626 174.33337 -337.0 238.0 -458.0c63.666626 -120.999985 120.0 -223.33331 144.0 -268.0" fill-rule="evenodd"/><path fill="#000000" fill-opacity="0.0" d="m-160.0 900.0009c80.666664 -144.0 379.3333 -773.6666 484.0 -864.0c104.66666 -90.33333 82.0 290.0 144.0 322.0c62.0 32.0 181.5971 -180.95276 228.0 -130.0c46.402893 50.95276 11.083984 396.71652 50.417297 435.71652c39.333374 39.0 130.9856 -219.76376 185.5827 -201.71652c54.597107 18.047241 90.0 308.33334 142.0 309.99997c52.0 1.666687 106.0 -182.66663 170.0 -299.99997c64.0 -117.33334 178.33337 -336.6667 214.0 -404.0" fill-rule="evenodd"/><path stroke="#000000" stroke-width="24.0" stroke-linejoin="round" stroke-linecap="butt" d="m-160.0 900.0009c80.666664 -144.0 379.3333 -773.6666 484.0 -864.0c104.66666 -90.33333 82.0 290.0 144.0 322.0c62.0 32.0 181.5971 -180.95276 228.0 -130.0c46.402893 50.95276 11.083984 396.71652 50.417297 435.71652c39.333374 39.0 130.9856 -219.76376 185.5827 -201.71652c54.597107 18.047241 90.0 308.33334 142.0 309.99997c52.0 1.666687 106.0 -182.66663 170.0 -299.99997c64.0 -117.33334 178.33337 -336.6667 214.0 -404.0" fill-rule="evenodd"/></g></svg>